<?xml version="1.0" encoding="UTF-8"?>
<svg id="Layer_2" data-name="Layer 2" xmlns="http://www.w3.org/2000/svg" viewBox="0 0 322.03 322.03">
  <defs>
    <style>
      .cls-1 {
        fill: #fff;
      }
    </style>
  </defs>
  <path class="cls-1" d="M53.65,304.47c-10.6-4.84-11.92-7.62-10.85-20.45,2.23-26.76,5.7-53.52,6.09-80.31.86-59.01-10.77-116.24-28.1-172.42-.65-2.12-1.23-4.26-2.17-7.51,6.6.68,12.3,1.48,18.03,1.83,23.21,1.45,46.43,3.67,69.66,3.76,12.26.05,25.1-2.06,36.71-6.04,31.98-10.98,61.59-5.59,90.05,10.31,35.43,19.8,55.07,51.22,64.74,89.77,7.26,28.95,7.02,58.01,1.72,87.18-4.66,25.64-6.34,51.35-2.36,77.29,1.64,10.69-.47,13.72-10.92,14.61-7.86.67-15.87.33-23.74-.38-2.82-.25-6.64-2.22-7.93-4.55-8.39-15.12-13.33-31.31-11.44-48.82.47-4.34,2.61-8.64,4.59-12.65,8.31-16.79,14.12-34.17,13.9-53.19-.14-12.14-3.21-23.53-8.55-34.33-16.43-33.28-39.72-59.62-74.77-74.25-29.05-12.13-65.45-6.58-85.04,14.19-13.5,14.31-17.87,32.55-19.1,51.63-.76,11.76,2.62,22.76,6.34,33.79,4.88,14.47,9.61,29.04,13.18,43.86,1.77,7.36,1.48,15.43.94,23.09-1.19,16.74-2.93,33.46-4.85,50.13-.88,7.65-4.95,12.96-13.43,13.45h-22.72Z"/>
  <path class="cls-1" d="M138.57,80.7c6.4.09,11.15,4.67,10.9,10.51-.23,5.39-5.31,9.83-11.21,9.79-6.32-.04-11.19-4.59-11.12-10.39.07-5.89,4.82-10.01,11.43-9.91Z"/>
</svg>