<?xml version="1.0" encoding="UTF-8"?>
<svg id="Layer_2" data-name="Layer 2" xmlns="http://www.w3.org/2000/svg" viewBox="0 0 1000 1000">
  <defs>
    <style>
      .cls-1 {
        fill: #fff;
      }
    </style>
  </defs>
  <path class="cls-1" d="M980.54,360.27c-1.45,1.92-3.08,3.72-4.33,5.76-36.9,60.58-69.05,123.73-100.95,187-14.13,28.02-27.59,56.37-41.58,84.46-.94,1.89-3.76,3.95-5.78,4.03-18.33.74-36.69.79-55.01,1.64-6.36.29-7.59-2.48-7.95-7.84-1.43-21.12-2.87-42.25-4.84-63.32-4.44-47.43-11.4-94.51-21.14-141.15-4.94-23.63-10.64-47.1-15.93-70.66-.41-1.81-.27-3.73-.39-5.6,18.56,0,37.11,0,55.67,0,.34,2.2.99,4.4.99,6.6.09,60.85,8.49,120.58,23.97,179.37,1.33,5.06,2.87,10.07,4.67,16.35,2.33-2.94,3.9-4.74,5.28-6.68,41.53-58.77,76-121.41,102.68-188.27,1.66-4.15,3.84-5.81,8.38-5.68,16.83.49,33.68.57,50.52.98,1.93.05,3.83,1.22,5.74,1.87v1.14Z"/>
  <path class="cls-1" d="M231.25,639.45c-16.29,0-31.22,0-46.14,0-12.33,0-12.36,0-14.86-11.82-7.26-34.43-23.25-64.1-48.16-89.01-3.02-3.02-4.95-3.22-8.47-.65-18.27,13.33-24.15,32.4-26.21,53.67-1.4,14.45-3.77,28.8-5.58,43.21-.49,3.92-2.62,4.7-6.19,4.68-16.66-.1-33.32-.08-49.98.14-5.03.07-5.51-2.09-4.74-6.35,7.18-39.76,14.21-79.55,21.29-119.33,8.24-46.3,16.52-92.59,24.69-138.9.56-3.16,1.39-5.5,5.07-5.5,18.15,0,36.29,0,55.62,0-.81,4.61-1.19,8.45-2.19,12.12-4.76,17.49-9.99,34.85-14.39,52.43-1.34,5.34-1.34,11.31-.59,16.81.99,7.28,5.41,8.73,11.33,4.65,31.65-21.87,57.26-49.33,76.03-82.94,2.47-4.43,5.36-6.16,10.18-6.19,18.74-.1,37.47-.44,56.21-.55,1.26,0,2.52,1.11,3.79,1.7-.86,1.33-1.48,2.93-2.62,3.96-13.2,11.91-26.97,23.24-39.62,35.7-25.89,25.5-47,54.82-66.24,85.55-1.93,3.08-1.68,5.4.15,8.21,12.96,19.99,25.54,40.23,38.85,59.98,13.25,19.67,26.36,39.33,31.42,62.99,1.01,4.71.87,9.66,1.34,15.46Z"/>
  <path class="cls-1" d="M591.62,638.42c1.29-7.6,2.3-14.64,3.7-21.6,12.37-61.31,19.71-123.24,23.76-185.62,1.47-22.65,3.87-45.24,5.72-67.88.26-3.16,1.28-5.18,4.6-5.18,21.95.02,43.91.11,65.86.2.31,0,.62.39,1.67,1.1-1.28,5.29-2.56,10.91-4.01,16.5-21.65,83.62-34.6,168.59-39.43,254.82-.43,7.64-.77,7.99-8.29,8-15.71.01-31.43.01-47.14-.01-1.83,0-3.67-.19-6.45-.34Z"/>
  <g>
    <path class="cls-1" d="M320.46,645.41c-10.6-4.84-11.92-7.62-10.85-20.45,2.23-26.76,5.7-53.52,6.09-80.31.86-59.01-10.77-116.24-28.1-172.42-.65-2.12-1.23-4.26-2.17-7.51,6.6.68,12.3,1.48,18.03,1.83,23.21,1.45,46.43,3.67,69.66,3.76,12.26.05,25.1-2.06,36.71-6.04,31.98-10.98,61.59-5.59,90.05,10.31,35.43,19.8,55.07,51.22,64.74,89.77,7.26,28.95,7.02,58.01,1.72,87.18-4.66,25.64-6.34,51.35-2.36,77.29,1.64,10.69-.47,13.72-10.92,14.61-7.86.67-15.87.33-23.74-.38-2.82-.25-6.64-2.22-7.93-4.55-8.39-15.12-13.33-31.31-11.44-48.82.47-4.34,2.61-8.64,4.59-12.65,8.31-16.79,14.12-34.17,13.9-53.19-.14-12.14-3.21-23.53-8.55-34.33-16.43-33.28-39.72-59.62-74.77-74.25-29.05-12.13-65.45-6.58-85.04,14.19-13.5,14.31-17.87,32.55-19.1,51.63-.76,11.76,2.62,22.76,6.34,33.79,4.88,14.47,9.61,29.04,13.18,43.86,1.77,7.36,1.48,15.43.94,23.09-1.19,16.74-2.93,33.46-4.85,50.13-.88,7.65-4.95,12.96-13.43,13.45h-22.72Z"/>
    <path class="cls-1" d="M405.38,421.64c6.4.09,11.15,4.67,10.9,10.51-.23,5.39-5.31,9.83-11.21,9.79-6.32-.04-11.19-4.59-11.12-10.39.07-5.89,4.82-10.01,11.43-9.91Z"/>
  </g>
</svg>